<mxfile host="app.diagrams.net" modified="2023-11-29T09:40:01.611Z" agent="Mozilla/5.0 (Windows NT 10.0; Win64; x64) AppleWebKit/537.36 (KHTML, like Gecko) Chrome/117.0.0.0 Safari/537.36" etag="wcf0_QgHQANDESUAJXVC" version="22.1.4" type="github">
  <diagram name="Seite-1" id="DYmZpvFpW-R7Gg1HzHR1">
    <mxGraphModel dx="2294" dy="2822" grid="1" gridSize="10" guides="1" tooltips="1" connect="1" arrows="1" fold="1" page="1" pageScale="1" pageWidth="827" pageHeight="1169" math="0" shadow="0">
      <root>
        <mxCell id="0" />
        <mxCell id="1" parent="0" />
        <mxCell id="rBDyEaz7XUgaB_4zMnyu-2" value="" style="rounded=0;whiteSpace=wrap;html=1;" parent="1" vertex="1">
          <mxGeometry x="195" y="260" width="710" height="1100" as="geometry" />
        </mxCell>
        <mxCell id="rBDyEaz7XUgaB_4zMnyu-3" value="" style="endArrow=none;html=1;rounded=0;" parent="1" edge="1">
          <mxGeometry width="50" height="50" relative="1" as="geometry">
            <mxPoint x="240" y="1280" as="sourcePoint" />
            <mxPoint x="240" y="330" as="targetPoint" />
          </mxGeometry>
        </mxCell>
        <mxCell id="rBDyEaz7XUgaB_4zMnyu-4" value="" style="endArrow=none;dashed=1;html=1;rounded=0;" parent="1" edge="1">
          <mxGeometry width="50" height="50" relative="1" as="geometry">
            <mxPoint x="240" y="330" as="sourcePoint" />
            <mxPoint x="240" y="290" as="targetPoint" />
          </mxGeometry>
        </mxCell>
        <mxCell id="rBDyEaz7XUgaB_4zMnyu-5" style="edgeStyle=orthogonalEdgeStyle;rounded=0;orthogonalLoop=1;jettySize=auto;html=1;endArrow=none;endFill=0;" parent="1" source="rBDyEaz7XUgaB_4zMnyu-6" edge="1">
          <mxGeometry relative="1" as="geometry">
            <mxPoint x="240" y="350" as="targetPoint" />
          </mxGeometry>
        </mxCell>
        <mxCell id="rBDyEaz7XUgaB_4zMnyu-6" value="&lt;b&gt;FbF_Drought_Monitoring_Trigger&lt;/b&gt;" style="rounded=0;whiteSpace=wrap;html=1;fillColor=#f5f5f5;fontColor=#333333;strokeColor=#666666;fontStyle=0" parent="1" vertex="1">
          <mxGeometry x="260" y="330" width="210" height="40" as="geometry" />
        </mxCell>
        <mxCell id="8eLrpo6SyWcruf2TeNTN-20" style="edgeStyle=orthogonalEdgeStyle;rounded=0;orthogonalLoop=1;jettySize=auto;html=1;entryX=0.5;entryY=1;entryDx=0;entryDy=0;exitX=0;exitY=0.5;exitDx=0;exitDy=0;endArrow=none;endFill=0;" parent="1" source="rBDyEaz7XUgaB_4zMnyu-8" target="rBDyEaz7XUgaB_4zMnyu-6" edge="1">
          <mxGeometry relative="1" as="geometry" />
        </mxCell>
        <mxCell id="rBDyEaz7XUgaB_4zMnyu-8" value="&lt;font style=&quot;&quot;&gt;&lt;b&gt;Fixed_data&lt;/b&gt;&lt;br&gt;&lt;/font&gt;" style="rounded=0;whiteSpace=wrap;html=1;fillColor=#f5f5f5;fontColor=#333333;strokeColor=#666666;fontStyle=0" parent="1" vertex="1">
          <mxGeometry x="390" y="405" width="210" height="40" as="geometry" />
        </mxCell>
        <mxCell id="8eLrpo6SyWcruf2TeNTN-21" style="edgeStyle=orthogonalEdgeStyle;rounded=0;orthogonalLoop=1;jettySize=auto;html=1;entryX=0.5;entryY=1;entryDx=0;entryDy=0;exitX=0;exitY=0.5;exitDx=0;exitDy=0;endArrow=none;endFill=0;" parent="1" source="rBDyEaz7XUgaB_4zMnyu-10" target="rBDyEaz7XUgaB_4zMnyu-6" edge="1">
          <mxGeometry relative="1" as="geometry" />
        </mxCell>
        <mxCell id="rBDyEaz7XUgaB_4zMnyu-10" value="&lt;font style=&quot;&quot;&gt;&lt;font style=&quot;&quot;&gt;&lt;b&gt;Monitoring&lt;/b&gt;&lt;/font&gt;&lt;br&gt;&lt;/font&gt;" style="rounded=0;whiteSpace=wrap;html=1;fillColor=#f5f5f5;fontColor=#333333;strokeColor=#666666;fontStyle=0" parent="1" vertex="1">
          <mxGeometry x="400" y="660" width="210" height="40" as="geometry" />
        </mxCell>
        <mxCell id="rBDyEaz7XUgaB_4zMnyu-11" style="edgeStyle=orthogonalEdgeStyle;rounded=0;orthogonalLoop=1;jettySize=auto;html=1;entryX=0.5;entryY=1;entryDx=0;entryDy=0;exitX=0;exitY=0.5;exitDx=0;exitDy=0;endArrow=none;endFill=0;" parent="1" source="rBDyEaz7XUgaB_4zMnyu-12" target="rBDyEaz7XUgaB_4zMnyu-10" edge="1">
          <mxGeometry relative="1" as="geometry" />
        </mxCell>
        <mxCell id="rBDyEaz7XUgaB_4zMnyu-12" value="&lt;font style=&quot;&quot;&gt;&lt;font style=&quot;&quot;&gt;&lt;b&gt;Year_Month_Template&lt;br&gt;&lt;/b&gt;&lt;/font&gt;&lt;span style=&quot;font-size: 10px;&quot;&gt;Styling files&lt;/span&gt;&lt;br&gt;&lt;/font&gt;" style="rounded=0;whiteSpace=wrap;html=1;fillColor=#f5f5f5;fontColor=#333333;strokeColor=#666666;fontStyle=0" parent="1" vertex="1">
          <mxGeometry x="530" y="720" width="210" height="40" as="geometry" />
        </mxCell>
        <mxCell id="rBDyEaz7XUgaB_4zMnyu-23" value="&lt;p class=&quot;MsoNormal&quot;&gt;&lt;font size=&quot;1&quot; style=&quot;&quot;&gt;&lt;b style=&quot;font-size: 14px;&quot;&gt;Standard Folder Structure&lt;/b&gt;&lt;/font&gt;&lt;/p&gt;" style="rounded=0;whiteSpace=wrap;html=1;" parent="1" vertex="1">
          <mxGeometry x="385" y="220" width="320" height="50" as="geometry" />
        </mxCell>
        <mxCell id="rBDyEaz7XUgaB_4zMnyu-42" value="" style="endArrow=none;dashed=1;html=1;rounded=0;" parent="1" edge="1">
          <mxGeometry width="50" height="50" relative="1" as="geometry">
            <mxPoint x="240" y="1325" as="sourcePoint" />
            <mxPoint x="240" y="1275" as="targetPoint" />
          </mxGeometry>
        </mxCell>
        <mxCell id="8eLrpo6SyWcruf2TeNTN-4" style="edgeStyle=orthogonalEdgeStyle;rounded=0;orthogonalLoop=1;jettySize=auto;html=1;entryX=0.5;entryY=1;entryDx=0;entryDy=0;exitX=0;exitY=0.5;exitDx=0;exitDy=0;endArrow=none;endFill=0;" parent="1" source="DHKMJk7bjbN0Lc8U2Itu-2" target="rBDyEaz7XUgaB_4zMnyu-6" edge="1">
          <mxGeometry relative="1" as="geometry" />
        </mxCell>
        <mxCell id="DHKMJk7bjbN0Lc8U2Itu-2" value="maps_somalia_template_risk_assessment.qpt&lt;br style=&quot;font-size: 11px;&quot;&gt;&lt;font size=&quot;1&quot;&gt;&lt;span style=&quot;font-weight: 400;&quot;&gt;Template for final map&lt;/span&gt;&lt;/font&gt;" style="shape=hexagon;perimeter=hexagonPerimeter2;whiteSpace=wrap;html=1;fixedSize=1;fillColor=#F5F5F5;fontStyle=1" parent="1" vertex="1">
          <mxGeometry x="400" y="1055" width="300" height="40" as="geometry" />
        </mxCell>
        <mxCell id="8eLrpo6SyWcruf2TeNTN-5" style="edgeStyle=orthogonalEdgeStyle;rounded=0;orthogonalLoop=1;jettySize=auto;html=1;entryX=0.5;entryY=1;entryDx=0;entryDy=0;exitX=0;exitY=0.5;exitDx=0;exitDy=0;endArrow=none;endFill=0;" parent="1" source="DHKMJk7bjbN0Lc8U2Itu-9" target="rBDyEaz7XUgaB_4zMnyu-6" edge="1">
          <mxGeometry relative="1" as="geometry" />
        </mxCell>
        <mxCell id="DHKMJk7bjbN0Lc8U2Itu-9" value="Triggermodel_Somalia.model3&lt;br style=&quot;font-size: 11px;&quot;&gt;&lt;font size=&quot;1&quot;&gt;&lt;span style=&quot;font-weight: 400;&quot;&gt;QGIS Trigger model file&lt;/span&gt;&lt;/font&gt;" style="shape=hexagon;perimeter=hexagonPerimeter2;whiteSpace=wrap;html=1;fixedSize=1;fillColor=#F5F5F5;fontStyle=1" parent="1" vertex="1">
          <mxGeometry x="400" y="1115" width="300" height="40" as="geometry" />
        </mxCell>
        <mxCell id="8eLrpo6SyWcruf2TeNTN-6" style="edgeStyle=orthogonalEdgeStyle;rounded=0;orthogonalLoop=1;jettySize=auto;html=1;entryX=0.5;entryY=1;entryDx=0;entryDy=0;exitX=0;exitY=0.5;exitDx=0;exitDy=0;endArrow=none;endFill=0;" parent="1" source="DHKMJk7bjbN0Lc8U2Itu-10" target="rBDyEaz7XUgaB_4zMnyu-6" edge="1">
          <mxGeometry relative="1" as="geometry" />
        </mxCell>
        <mxCell id="DHKMJk7bjbN0Lc8U2Itu-10" value="Style_Model_Output.qml&lt;br style=&quot;font-size: 11px;&quot;&gt;&lt;font size=&quot;1&quot;&gt;&lt;span style=&quot;font-weight: normal;&quot;&gt;Style file containg color for final map&lt;/span&gt;&lt;/font&gt;" style="shape=hexagon;perimeter=hexagonPerimeter2;whiteSpace=wrap;html=1;fixedSize=1;fillColor=#F5F5F5;fontStyle=1" parent="1" vertex="1">
          <mxGeometry x="400" y="1175" width="300" height="40" as="geometry" />
        </mxCell>
        <mxCell id="8eLrpo6SyWcruf2TeNTN-7" style="edgeStyle=orthogonalEdgeStyle;rounded=0;orthogonalLoop=1;jettySize=auto;html=1;entryX=0.5;entryY=1;entryDx=0;entryDy=0;exitX=0;exitY=0.5;exitDx=0;exitDy=0;endArrow=none;endFill=0;" parent="1" source="8eLrpo6SyWcruf2TeNTN-1" target="rBDyEaz7XUgaB_4zMnyu-6" edge="1">
          <mxGeometry relative="1" as="geometry" />
        </mxCell>
        <mxCell id="8eLrpo6SyWcruf2TeNTN-1" value="&lt;p class=&quot;MsoNormal&quot;&gt;Documentation_Manual_Triggermodel.pdf&lt;/p&gt;" style="shape=hexagon;perimeter=hexagonPerimeter2;whiteSpace=wrap;html=1;fixedSize=1;fillColor=#F5F5F5;fontStyle=1" parent="1" vertex="1">
          <mxGeometry x="400" y="1235" width="300" height="40" as="geometry" />
        </mxCell>
        <mxCell id="8eLrpo6SyWcruf2TeNTN-15" style="edgeStyle=orthogonalEdgeStyle;rounded=0;orthogonalLoop=1;jettySize=auto;html=1;entryX=0.5;entryY=1;entryDx=0;entryDy=0;exitX=0;exitY=0.5;exitDx=0;exitDy=0;endArrow=none;endFill=0;" parent="1" source="8eLrpo6SyWcruf2TeNTN-11" target="rBDyEaz7XUgaB_4zMnyu-12" edge="1">
          <mxGeometry relative="1" as="geometry" />
        </mxCell>
        <mxCell id="8eLrpo6SyWcruf2TeNTN-11" value="&lt;font style=&quot;&quot;&gt;&lt;font style=&quot;&quot;&gt;&lt;b&gt;IPC_ML1&lt;br&gt;&lt;/b&gt;&lt;/font&gt;&lt;span style=&quot;font-size: 10px;&quot;&gt;Shapefile with IPC near-term projections&lt;/span&gt;&lt;br&gt;&lt;/font&gt;" style="rounded=0;whiteSpace=wrap;html=1;fillColor=#f5f5f5;fontColor=#333333;strokeColor=#666666;fontStyle=0" parent="1" vertex="1">
          <mxGeometry x="660" y="780" width="210" height="40" as="geometry" />
        </mxCell>
        <mxCell id="8eLrpo6SyWcruf2TeNTN-16" style="edgeStyle=orthogonalEdgeStyle;rounded=0;orthogonalLoop=1;jettySize=auto;html=1;entryX=0.5;entryY=1;entryDx=0;entryDy=0;exitX=0;exitY=0.5;exitDx=0;exitDy=0;endArrow=none;endFill=0;" parent="1" source="8eLrpo6SyWcruf2TeNTN-12" target="rBDyEaz7XUgaB_4zMnyu-12" edge="1">
          <mxGeometry relative="1" as="geometry" />
        </mxCell>
        <mxCell id="8eLrpo6SyWcruf2TeNTN-12" value="&lt;font style=&quot;&quot;&gt;&lt;font style=&quot;&quot;&gt;&lt;b&gt;IPC_ML2&lt;br&gt;&lt;/b&gt;&lt;/font&gt;&lt;span style=&quot;font-size: 7.5pt; line-height: 107%; font-family: Helvetica, sans-serif; background-image: initial; background-position: initial; background-size: initial; background-repeat: initial; background-attachment: initial; background-origin: initial; background-clip: initial;&quot;&gt;Shapefile with IPC mid-term projections&lt;/span&gt;&lt;br&gt;&lt;/font&gt;" style="rounded=0;whiteSpace=wrap;html=1;fillColor=#f5f5f5;fontColor=#333333;strokeColor=#666666;fontStyle=0" parent="1" vertex="1">
          <mxGeometry x="660" y="845" width="210" height="40" as="geometry" />
        </mxCell>
        <mxCell id="8eLrpo6SyWcruf2TeNTN-17" style="edgeStyle=orthogonalEdgeStyle;rounded=0;orthogonalLoop=1;jettySize=auto;html=1;entryX=0.5;entryY=1;entryDx=0;entryDy=0;exitX=0;exitY=0.5;exitDx=0;exitDy=0;endArrow=none;endFill=0;" parent="1" source="8eLrpo6SyWcruf2TeNTN-13" target="rBDyEaz7XUgaB_4zMnyu-12" edge="1">
          <mxGeometry relative="1" as="geometry" />
        </mxCell>
        <mxCell id="8eLrpo6SyWcruf2TeNTN-13" value="&lt;font style=&quot;&quot;&gt;&lt;font style=&quot;&quot;&gt;&lt;b&gt;SPI_12&lt;br&gt;&lt;/b&gt;&lt;/font&gt;&lt;span style=&quot;font-size: 10px;&quot;&gt;NetCDF file with SPI-12 forecast&lt;/span&gt;&lt;br&gt;&lt;/font&gt;" style="rounded=0;whiteSpace=wrap;html=1;fillColor=#f5f5f5;fontColor=#333333;strokeColor=#666666;fontStyle=0" parent="1" vertex="1">
          <mxGeometry x="660" y="915" width="210" height="40" as="geometry" />
        </mxCell>
        <mxCell id="8eLrpo6SyWcruf2TeNTN-19" style="edgeStyle=orthogonalEdgeStyle;rounded=0;orthogonalLoop=1;jettySize=auto;html=1;exitX=0;exitY=0.5;exitDx=0;exitDy=0;endArrow=none;endFill=0;" parent="1" source="8eLrpo6SyWcruf2TeNTN-14" target="rBDyEaz7XUgaB_4zMnyu-12" edge="1">
          <mxGeometry relative="1" as="geometry" />
        </mxCell>
        <mxCell id="8eLrpo6SyWcruf2TeNTN-14" value="Year_month.qgz&lt;br style=&quot;font-size: 11px;&quot;&gt;&lt;font size=&quot;1&quot;&gt;&lt;span style=&quot;font-weight: 400;&quot;&gt;QGIS project to be created&lt;/span&gt;&lt;/font&gt;" style="shape=hexagon;perimeter=hexagonPerimeter2;whiteSpace=wrap;html=1;fixedSize=1;fillColor=#F5F5F5;fontStyle=1" parent="1" vertex="1">
          <mxGeometry x="660" y="985" width="210" height="40" as="geometry" />
        </mxCell>
        <mxCell id="8eLrpo6SyWcruf2TeNTN-31" style="edgeStyle=orthogonalEdgeStyle;rounded=0;orthogonalLoop=1;jettySize=auto;html=1;entryX=0.5;entryY=1;entryDx=0;entryDy=0;exitX=0;exitY=0.5;exitDx=0;exitDy=0;endArrow=none;endFill=0;" parent="1" source="8eLrpo6SyWcruf2TeNTN-22" target="rBDyEaz7XUgaB_4zMnyu-8" edge="1">
          <mxGeometry relative="1" as="geometry" />
        </mxCell>
        <mxCell id="8eLrpo6SyWcruf2TeNTN-22" value="&lt;font style=&quot;&quot;&gt;&lt;b&gt;Pop_per_district&lt;br&gt;&lt;/b&gt;&lt;span style=&quot;font-size: 10px;&quot;&gt;.gpkg file admin 2 borders &amp;amp; population&lt;/span&gt;&lt;br&gt;&lt;/font&gt;" style="rounded=0;whiteSpace=wrap;html=1;fillColor=#f5f5f5;fontColor=#333333;strokeColor=#666666;fontStyle=0" parent="1" vertex="1">
          <mxGeometry x="530" y="470" width="210" height="40" as="geometry" />
        </mxCell>
        <mxCell id="8eLrpo6SyWcruf2TeNTN-33" style="edgeStyle=orthogonalEdgeStyle;rounded=0;orthogonalLoop=1;jettySize=auto;html=1;entryX=0.5;entryY=1;entryDx=0;entryDy=0;exitX=0;exitY=0.5;exitDx=0;exitDy=0;endArrow=none;endFill=0;" parent="1" source="8eLrpo6SyWcruf2TeNTN-32" target="rBDyEaz7XUgaB_4zMnyu-8" edge="1">
          <mxGeometry relative="1" as="geometry" />
        </mxCell>
        <mxCell id="8eLrpo6SyWcruf2TeNTN-32" value="&lt;font style=&quot;&quot;&gt;&lt;b&gt;worldpop&lt;br&gt;&lt;/b&gt;&lt;span style=&quot;font-size: 10px;&quot;&gt;.tiff file population raster data&lt;/span&gt;&lt;br&gt;&lt;/font&gt;" style="rounded=0;whiteSpace=wrap;html=1;fillColor=#f5f5f5;fontColor=#333333;strokeColor=#666666;fontStyle=0" parent="1" vertex="1">
          <mxGeometry x="530" y="530" width="210" height="40" as="geometry" />
        </mxCell>
        <mxCell id="mBs5PCzR9gYJVEHZNBFj-2" style="edgeStyle=orthogonalEdgeStyle;rounded=0;orthogonalLoop=1;jettySize=auto;html=1;entryX=0.5;entryY=1;entryDx=0;entryDy=0;exitX=0;exitY=0.5;exitDx=0;exitDy=0;endArrow=none;endFill=0;" edge="1" parent="1" source="mBs5PCzR9gYJVEHZNBFj-1" target="rBDyEaz7XUgaB_4zMnyu-8">
          <mxGeometry relative="1" as="geometry" />
        </mxCell>
        <mxCell id="mBs5PCzR9gYJVEHZNBFj-1" value="&lt;font style=&quot;&quot;&gt;&lt;b&gt;Risk_Assessment&lt;br&gt;&lt;/b&gt;&lt;span style=&quot;font-size: 10px;&quot;&gt;.gpkg file with results of risk assessment 2022&lt;/span&gt;&lt;br&gt;&lt;/font&gt;" style="rounded=0;whiteSpace=wrap;html=1;fillColor=#f5f5f5;fontColor=#333333;strokeColor=#666666;fontStyle=0" vertex="1" parent="1">
          <mxGeometry x="530" y="590" width="210" height="40" as="geometry" />
        </mxCell>
      </root>
    </mxGraphModel>
  </diagram>
</mxfile>
